HIERARCHY
ROOT Hips
{
	OFFSET 0.000000 99.793892 0.000000
	CHANNELS 6 Xposition Yposition Zposition Xrotation Yrotation Zrotation 
	JOINT Spine
	{
		OFFSET 0.000000 9.694397 -1.109700
		CHANNELS 3 Xrotation Yrotation Zrotation
		JOINT Spine1
		{
			OFFSET 0.000000 8.078677 -0.924777
			CHANNELS 3 Xrotation Yrotation Zrotation
			JOINT Spine1_split
			{
				OFFSET 0.000000 8.078677 -0.924777
				CHANNELS 3 Xrotation Yrotation Zrotation
				JOINT Spine2
				{
					OFFSET 0.000000 8.078677 -0.924777
					CHANNELS 3 Xrotation Yrotation Zrotation
					JOINT Neck
					{
						OFFSET 0.000000 14.541641 -1.664600
						CHANNELS 3 Xrotation Yrotation Zrotation
						JOINT Head
						{
							OFFSET 0.000000 6.944305 1.982500
							CHANNELS 3 Xrotation Yrotation Zrotation
							JOINT HeadTop_End
							{
								OFFSET 0.000000 22.789597 6.506100
								CHANNELS 3 Xrotation Yrotation Zrotation
								End Site
								{
									OFFSET 0.000000 0.000000 0.000000
								}
							}
						}
					}
					JOINT LeftShoulder
					{
						OFFSET 3.340650 6.393044 -0.810984
						CHANNELS 3 Xrotation Yrotation Zrotation
						JOINT LeftShoulder_split
						{
							OFFSET 3.340650 6.393044 -0.810984
							CHANNELS 3 Xrotation Yrotation Zrotation
							JOINT LeftArm
							{
								OFFSET 13.585576 -3.446136 0.085203
								CHANNELS 3 Xrotation Yrotation Zrotation
								JOINT LeftForeArm
								{
									OFFSET 27.330299 0.000000 -0.000001
									CHANNELS 3 Xrotation Yrotation Zrotation
									JOINT LeftHand
									{
										OFFSET 20.888802 0.000000 -0.000001
										CHANNELS 3 Xrotation Yrotation Zrotation
										JOINT LeftHandThumb1
										{
											OFFSET 3.934731 -1.328445 2.632622
											CHANNELS 3 Xrotation Yrotation Zrotation
											JOINT LeftHandThumb2
											{
												OFFSET 3.046997 -1.759186 1.759186
												CHANNELS 3 Xrotation Yrotation Zrotation
												JOINT LeftHandThumb3
												{
													OFFSET 2.671288 -1.542267 1.542270
													CHANNELS 3 Xrotation Yrotation Zrotation
													JOINT LeftHandThumb4
													{
														OFFSET 2.059540 -1.189072 1.189075
														CHANNELS 3 Xrotation Yrotation Zrotation
														End Site
														{
															OFFSET 0.000000 0.000000 0.000000
														}
													}
												}
											}
										}
										JOINT LeftHandIndex1
										{
											OFFSET 11.356102 -0.357925 2.480554
											CHANNELS 3 Xrotation Yrotation Zrotation
											JOINT LeftHandIndex2
											{
												OFFSET 3.230431 0.000000 -0.000000
												CHANNELS 3 Xrotation Yrotation Zrotation
												JOINT LeftHandIndex3
												{
													OFFSET 3.093842 0.000000 -0.000000
													CHANNELS 3 Xrotation Yrotation Zrotation
													JOINT LeftHandIndex4
													{
														OFFSET 2.710304 0.000000 -0.000000
														CHANNELS 3 Xrotation Yrotation Zrotation
														End Site
														{
															OFFSET 0.000000 0.000000 0.000000
														}
													}
												}
											}
										}
										JOINT LeftHandMiddle1
										{
											OFFSET 11.227951 0.000000 -0.000001
											CHANNELS 3 Xrotation Yrotation Zrotation
											JOINT LeftHandMiddle2
											{
												OFFSET 3.465431 0.000000 0.000000
												CHANNELS 3 Xrotation Yrotation Zrotation
												JOINT LeftHandMiddle3
												{
													OFFSET 3.340118 0.000000 0.000000
													CHANNELS 3 Xrotation Yrotation Zrotation
													JOINT LeftHandMiddle4
													{
														OFFSET 2.993599 0.000000 0.000000
														CHANNELS 3 Xrotation Yrotation Zrotation
														End Site
														{
															OFFSET 0.000000 0.000000 0.000000
														}
													}
												}
											}
										}
										JOINT LeftHandRing1
										{
											OFFSET 11.215385 -0.016006 -2.298895
											CHANNELS 3 Xrotation Yrotation Zrotation
											JOINT LeftHandRing2
											{
												OFFSET 2.891907 0.000000 0.000000
												CHANNELS 3 Xrotation Yrotation Zrotation
												JOINT LeftHandRing3
												{
													OFFSET 2.705215 0.000000 0.000000
													CHANNELS 3 Xrotation Yrotation Zrotation
													JOINT LeftHandRing4
													{
														OFFSET 2.307037 0.000000 0.000000
														CHANNELS 3 Xrotation Yrotation Zrotation
														End Site
														{
															OFFSET 0.000000 0.000000 0.000000
														}
													}
												}
											}
										}
										JOINT LeftHandPinky1
										{
											OFFSET 9.863464 -0.351425 -4.395246
											CHANNELS 3 Xrotation Yrotation Zrotation
											JOINT LeftHandPinky2
											{
												OFFSET 2.647736 0.000000 0.000000
												CHANNELS 3 Xrotation Yrotation Zrotation
												JOINT LeftHandPinky3
												{
													OFFSET 2.219719 0.000000 0.000000
													CHANNELS 3 Xrotation Yrotation Zrotation
													JOINT LeftHandPinky4
													{
														OFFSET 1.855507 0.000000 0.000000
														CHANNELS 3 Xrotation Yrotation Zrotation
														End Site
														{
															OFFSET 0.000000 0.000000 0.000000
														}
													}
												}
											}
										}
									}
								}
							}
						}
					}
					JOINT RightShoulder
					{
						OFFSET -3.340650 6.393051 -0.853611
						CHANNELS 3 Xrotation Yrotation Zrotation
						JOINT RightShoulder_split
						{
							OFFSET -3.340650 6.393051 -0.853611
							CHANNELS 3 Xrotation Yrotation Zrotation
							JOINT RightArm
							{
								OFFSET -13.585576 -3.446152 -0.085196
								CHANNELS 3 Xrotation Yrotation Zrotation
								JOINT RightForeArm
								{
									OFFSET -27.318214 0.000000 0.000002
									CHANNELS 3 Xrotation Yrotation Zrotation
									JOINT RightHand
									{
										OFFSET -20.889801 0.000000 0.000001
										CHANNELS 3 Xrotation Yrotation Zrotation
										JOINT RightHandThumb1
										{
											OFFSET -4.042946 -1.401764 2.740883
											CHANNELS 3 Xrotation Yrotation Zrotation
											JOINT RightHandThumb2
											{
												OFFSET -3.149010 -1.818085 1.818083
												CHANNELS 3 Xrotation Yrotation Zrotation
												JOINT RightHandThumb3
												{
													OFFSET -2.605377 -1.504211 1.504218
													CHANNELS 3 Xrotation Yrotation Zrotation
													JOINT RightHandThumb4
													{
														OFFSET -2.034538 -1.174637 1.174643
														CHANNELS 3 Xrotation Yrotation Zrotation
														End Site
														{
															OFFSET 0.000000 0.000000 0.000000
														}
													}
												}
											}
										}
										JOINT RightHandIndex1
										{
											OFFSET -11.498108 -0.223465 2.596514
											CHANNELS 3 Xrotation Yrotation Zrotation
											JOINT RightHandIndex2
											{
												OFFSET -3.230072 0.000000 0.000000
												CHANNELS 3 Xrotation Yrotation Zrotation
												JOINT RightHandIndex3
												{
													OFFSET -3.008400 0.000000 0.000000
													CHANNELS 3 Xrotation Yrotation Zrotation
													JOINT RightHandIndex4
													{
														OFFSET -2.577469 0.000000 0.000000
														CHANNELS 3 Xrotation Yrotation Zrotation
														End Site
														{
															OFFSET 0.000000 0.000000 0.000000
														}
													}
												}
											}
										}
										JOINT RightHandMiddle1
										{
											OFFSET -11.291573 0.000000 0.000000
											CHANNELS 3 Xrotation Yrotation Zrotation
											JOINT RightHandMiddle2
											{
												OFFSET -3.513855 0.000000 0.000000
												CHANNELS 3 Xrotation Yrotation Zrotation
												JOINT RightHandMiddle3
												{
													OFFSET -3.299538 0.000000 0.000000
													CHANNELS 3 Xrotation Yrotation Zrotation
													JOINT RightHandMiddle4
													{
														OFFSET -2.888702 0.000000 0.000000
														CHANNELS 3 Xrotation Yrotation Zrotation
														End Site
														{
															OFFSET 0.000000 0.000000 0.000000
														}
													}
												}
											}
										}
										JOINT RightHandRing1
										{
											OFFSET -11.158524 -0.069885 -2.264038
											CHANNELS 3 Xrotation Yrotation Zrotation
											JOINT RightHandRing2
											{
												OFFSET -2.878105 0.000000 0.000000
												CHANNELS 3 Xrotation Yrotation Zrotation
												JOINT RightHandRing3
												{
													OFFSET -2.739204 0.000000 0.000000
													CHANNELS 3 Xrotation Yrotation Zrotation
													JOINT RightHandRing4
													{
														OFFSET -2.335304 0.000000 0.000000
														CHANNELS 3 Xrotation Yrotation Zrotation
														End Site
														{
															OFFSET 0.000000 0.000000 0.000000
														}
													}
												}
											}
										}
										JOINT RightHandPinky1
										{
											OFFSET -9.865288 -0.197952 -4.417972
											CHANNELS 3 Xrotation Yrotation Zrotation
											JOINT RightHandPinky2
											{
												OFFSET -2.659409 0.000000 0.000000
												CHANNELS 3 Xrotation Yrotation Zrotation
												JOINT RightHandPinky3
												{
													OFFSET -2.181625 0.000000 0.000000
													CHANNELS 3 Xrotation Yrotation Zrotation
													JOINT RightHandPinky4
													{
														OFFSET -1.923111 0.000000 0.000000
														CHANNELS 3 Xrotation Yrotation Zrotation
														End Site
														{
															OFFSET 0.000000 0.000000 0.000000
														}
													}
												}
											}
										}
									}
								}
							}
						}
					}
				}
			}
		}
	}
	JOINT LeftUpLeg
	{
		OFFSET 8.726300 -5.393196 -0.445400
		CHANNELS 3 Xrotation Yrotation Zrotation
		JOINT LeftLeg
		{
			OFFSET 0.203112 -40.995728 -2.240422
			CHANNELS 3 Xrotation Yrotation Zrotation
			JOINT LeftFoot
			{
				OFFSET -0.203116 -41.811745 -4.341125
				CHANNELS 3 Xrotation Yrotation Zrotation
				JOINT LeftToeBase
				{
					OFFSET 2.022961 -9.567262 15.917597
					CHANNELS 3 Xrotation Yrotation Zrotation
					JOINT LeftToe_End
					{
						OFFSET 0.919500 0.587269 6.993709
						CHANNELS 3 Xrotation Yrotation Zrotation
						End Site
						{
							OFFSET 0.000000 0.000000 0.000000
						}
					}
				}
			}
		}
	}
	JOINT RightUpLeg
	{
		OFFSET -8.726300 -5.393196 -0.458900
		CHANNELS 3 Xrotation Yrotation Zrotation
		JOINT RightLeg
		{
			OFFSET -0.203119 -40.995686 -2.183443
			CHANNELS 3 Xrotation Yrotation Zrotation
			JOINT RightFoot
			{
				OFFSET 0.203109 -41.812000 -3.686646
				CHANNELS 3 Xrotation Yrotation Zrotation
				JOINT RightToeBase
				{
					OFFSET -2.022940 -9.566534 15.362668
					CHANNELS 3 Xrotation Yrotation Zrotation
					JOINT RightToe_End
					{
						OFFSET -0.919481 0.587567 7.048032
						CHANNELS 3 Xrotation Yrotation Zrotation
						End Site
						{
							OFFSET 0.000000 0.000000 0.000000
						}
					}
				}
			}
		}
	}
}
MOTION
Frames: 5
Frame Time: 0.016667
2.355007 91.711952 22.723379 359.718770 -2.389260 -343.715063 1.390837 2.387366 -0.376729 5.002041 -0.143578 -11.503015 0.000000 0.000000 0.000000 5.056308 -0.167863 -11.478674 5.019089 2.869678 -4.079248 5.019094 2.869680 -4.079249 0.000002 0.000000 0.000000 -0.285158 7.255906 -0.306910 0.000000 0.000000 0.000000 -65.097413 -18.100341 -15.385940 -0.000006 -13.440623 0.000002 28.592222 -12.363596 7.789119 -3.717915 17.628138 14.011623 4.535414 15.200313 1.290807 -0.579468 1.575010 2.538706 -0.000004 0.000001 -0.000001 0.150261 1.433472 -11.967589 0.017467 0.491288 -4.074523 0.017483 0.491290 -4.074521 0.000001 0.000002 0.000000 0.214959 1.710353 -14.325596 0.133208 1.350554 -11.265686 0.120229 1.283694 -10.700973 -0.000002 -0.000001 -0.000001 0.293382 1.992237 -16.752671 0.382176 2.266251 -19.142917 0.374639 2.244360 -18.950790 0.000001 -0.000002 0.000003 1.724775 6.121299 -18.951016 0.667348 -1.113635 -25.708050 0.659918 2.946354 -25.244886 -0.000002 0.000002 0.000003 0.355360 0.560321 -0.501969 0.000000 0.000000 0.000000 25.831038 14.305253 76.331203 -0.000005 27.796688 0.000010 43.747669 3.750931 3.827682 -4.077544 -16.174545 -15.131712 5.287474 -15.850484 -0.724074 -1.273745 0.137307 -2.094879 -0.000000 -0.000001 -0.000003 0.008535 0.344990 -2.832073 0.074788 -1.019154 8.393729 0.100618 -1.181002 9.739023 0.000001 -0.000001 0.000002 0.023586 -0.573487 4.711303 0.136567 -1.374068 11.351514 0.180987 -1.579221 13.074883 -0.000003 0.000000 -0.000001 0.187889 -1.608681 13.323397 0.249353 -1.848960 15.360414 0.303485 -2.035632 16.957130 -0.000003 -0.000001 0.000002 0.461637 -2.495798 20.956646 0.341789 -2.157205 18.004420 0.420946 -2.386864 20.000764 -0.000000 0.000002 -0.000002 -17.803873 7.270615 -16.216718 38.807926 -8.846953 -0.198321 -18.791099 -3.303444 4.478334 -4.854811 -0.000003 0.000038 0.000001 0.000000 0.000000 -31.905617 17.679627 -4.393909 66.217297 -12.628535 -10.572928 -17.008047 -9.960030 -2.639559 -18.609233 -0.000069 0.000152 0.000000 0.000000 0.000000 
1.949327 91.222641 22.777054 358.992120 0.384466 -343.512452 1.446515 1.913343 -1.106330 5.301584 -0.247207 -11.524289 0.000000 0.000000 0.000000 5.344461 -0.266147 -11.504272 5.110733 2.009803 -3.032964 5.110730 2.009803 -3.032970 0.000002 -0.000000 -0.000000 -0.256117 7.133780 -0.500698 0.000000 0.000000 0.000000 -64.915108 -19.090843 -16.974697 -0.000012 -13.870460 -0.000015 28.822982 -13.527330 6.910099 -3.717919 17.628143 14.011602 4.535416 15.200313 1.290808 -0.579469 1.575001 2.538711 -0.000001 0.000004 0.000000 0.150892 1.436444 -11.992772 0.016661 0.479903 -3.979827 0.016676 0.479881 -3.979822 0.000000 0.000002 0.000001 0.213265 1.703737 -14.268984 0.130721 1.338018 -11.159785 0.117831 1.270912 -10.593076 -0.000000 0.000000 0.000001 0.287911 1.974015 -16.594899 0.377226 2.251906 -19.016952 0.369881 2.230511 -18.829298 -0.000001 -0.000001 0.000001 1.698238 6.098860 -18.701724 0.660439 -1.128010 -25.575934 0.653120 2.931893 -25.112278 0.000000 0.000003 0.000003 0.263482 -0.325184 -0.723764 0.000000 0.000000 0.000000 28.188763 12.333180 76.327241 -0.000018 28.584647 -0.000000 44.342210 4.629928 5.002491 -4.077541 -16.174549 -15.131710 5.287474 -15.850484 -0.724072 -1.273742 0.137310 -2.094880 -0.000002 0.000005 -0.000005 0.007383 0.320882 -2.633980 0.074231 -1.015423 8.362706 0.100290 -1.179143 9.723515 0.000003 -0.000000 0.000001 0.024567 -0.585090 4.806794 0.135591 -1.369158 11.310348 0.180232 -1.575964 13.047475 0.000001 0.000002 -0.000004 0.187244 -1.605830 13.299345 0.247103 -1.840802 15.291021 0.302151 -2.031248 16.919432 -0.000001 -0.000001 0.000001 0.456268 -2.481677 20.832398 0.338500 -2.147020 17.916440 0.419105 -2.381841 19.956734 0.000000 -0.000001 -0.000001 -18.160618 7.581046 -16.070218 40.767897 -8.634507 0.350344 -19.501250 -5.632381 3.832068 -4.791770 -0.000006 0.000034 0.000000 0.000002 0.000000 -30.325565 17.105282 -5.167225 66.396870 -12.750248 -10.561185 -19.537353 -9.912761 -2.320934 -18.090297 -0.000068 0.000153 -0.000001 -0.000002 0.000002 
1.510496 90.662056 22.807314 358.178781 3.225254 -343.577558 1.519316 1.370211 -1.679550 5.689229 -0.360087 -11.450370 0.000000 0.000000 0.000000 5.718663 -0.375345 -11.435325 5.144584 1.072037 -1.817757 5.144545 1.072034 -1.817740 0.000002 0.000000 -0.000001 -0.231134 6.866843 -0.547727 0.000000 0.000000 0.000000 -64.518192 -19.918619 -18.500107 -0.000007 -14.230672 0.000008 28.877657 -14.744445 5.589585 -3.717912 17.628141 14.011617 4.535421 15.200304 1.290807 -0.579466 1.575006 2.538709 -0.000003 0.000003 0.000000 0.156856 1.464210 -12.228182 0.016230 0.473645 -3.927912 0.016241 0.473649 -3.927906 0.000001 0.000002 0.000001 0.216763 1.717422 -14.386024 0.129232 1.330495 -11.096212 0.116148 1.261862 -10.516902 0.000002 -0.000001 -0.000001 0.287201 1.971639 -16.574205 0.373410 2.240817 -18.919687 0.365946 2.218965 -18.727860 -0.000000 0.000003 -0.000002 1.683735 6.086528 -18.565026 0.654168 -1.141133 -25.455581 0.646974 2.918716 -24.991485 -0.000003 -0.000002 -0.000000 0.176057 -1.149389 -0.904153 0.000000 0.000000 0.000000 30.106613 9.686454 76.077249 0.000017 29.072799 -0.000001 45.030071 5.491034 6.942703 -4.077547 -16.174547 -15.131710 5.287476 -15.850487 -0.724076 -1.273742 0.137309 -2.094879 -0.000002 0.000003 -0.000002 0.005219 0.269853 -2.214773 0.074330 -1.016052 8.367964 0.100354 -1.179471 9.726139 0.000001 0.000001 -0.000002 0.027574 -0.619835 5.093074 0.135641 -1.369422 11.312484 0.179894 -1.574536 13.035471 0.000001 -0.000001 0.000002 0.191117 -1.622243 13.437939 0.246108 -1.837122 15.259570 0.301305 -2.028445 16.895438 0.000001 0.000001 -0.000003 0.457166 -2.484067 20.853420 0.336178 -2.139852 17.854707 0.417825 -2.378297 19.925885 0.000002 -0.000002 0.000001 -18.731743 7.787058 -15.591064 43.119961 -8.391454 0.988520 -20.410741 -8.021166 3.128394 -4.792542 -0.000000 0.000036 -0.000000 0.000001 -0.000000 -28.650376 15.770350 -5.931061 66.261782 -12.519369 -10.478137 -22.567548 -10.113568 -2.083080 -15.538855 -0.000047 0.000141 0.000000 -0.000002 -0.000000 
1.023037 90.033981 22.818642 357.285037 6.111008 -343.961660 1.633156 0.748903 -2.083873 6.138814 -0.476398 -11.223216 0.000000 0.000000 0.000000 6.153047 -0.489898 -11.214060 5.133579 0.061754 -0.461146 5.133583 0.061752 -0.461141 -0.000000 -0.000001 -0.000000 -0.208498 6.444578 -0.448488 0.000000 0.000000 0.000000 -63.861599 -20.541937 -19.970005 0.000011 -14.493195 0.000003 28.745022 -15.981855 3.817378 -3.717914 17.628145 14.011616 4.535410 15.200299 1.290804 -0.579468 1.574999 2.538708 -0.000003 0.000004 -0.000001 0.169620 1.521901 -12.718033 0.016312 0.474811 -3.937550 0.016323 0.474788 -3.937537 -0.000000 -0.000000 -0.000000 0.226910 1.756495 -14.720774 0.129200 1.330272 -11.094358 0.115540 1.258637 -10.489605 0.000001 -0.000001 -0.000001 0.292821 1.990389 -16.736516 0.371429 2.235014 -18.868830 0.363394 2.211396 -18.661690 0.000001 0.000005 -0.000000 1.686426 6.088832 -18.590394 0.649275 -1.151469 -25.361005 0.642135 2.908358 -24.896562 0.000000 -0.000001 -0.000001 0.095696 -1.888480 -1.058883 0.000000 0.000000 0.000000 31.489361 6.161909 75.473440 -0.000018 29.097856 0.000028 45.809983 6.548328 9.477175 -4.077543 -16.174542 -15.131709 5.287470 -15.850484 -0.724070 -1.273744 0.137308 -2.094881 -0.000001 0.000006 -0.000002 0.002466 0.185358 -1.521109 0.075195 -1.022005 8.417485 0.100862 -1.182429 9.750910 -0.000001 0.000001 -0.000002 0.033499 -0.683174 5.615289 0.136958 -1.375961 11.367300 0.180094 -1.575339 13.042075 -0.000003 -0.000000 0.000001 0.200846 -1.662288 13.776452 0.246547 -1.838770 15.273573 0.301025 -2.027565 16.887691 -0.000001 0.000001 -0.000000 0.465797 -2.506609 21.051850 0.335043 -2.136268 17.823660 0.417182 -2.376513 19.910341 -0.000001 0.000000 -0.000001 -19.535167 7.818606 -14.738095 45.828285 -8.135708 1.730154 -21.513224 -10.394566 2.355408 -4.875619 -0.000012 0.000036 -0.000001 0.000001 0.000000 -26.974464 13.663485 -6.507541 65.839745 -11.975961 -10.376463 -25.848576 -10.559179 -1.849026 -12.434789 -0.000035 0.000104 -0.000000 -0.000001 -0.000001 
0.474648 89.358017 22.824682 356.307200 8.988493 -344.699758 1.824135 0.030848 -2.316090 6.613114 -0.590822 -10.781116 0.000000 0.000000 0.000000 6.611134 -0.604478 -10.779142 5.093354 -1.004352 0.988287 5.093351 -1.004354 0.988283 0.000002 0.000000 -0.000000 -0.183748 5.867025 -0.222346 0.000000 0.000000 0.000000 -62.901732 -20.903191 -21.383996 -0.000007 -14.649699 0.000001 28.419961 -17.198182 1.617456 -3.717919 17.628133 14.011619 4.535419 15.200311 1.290807 -0.579467 1.575004 2.538706 -0.000000 0.000002 0.000002 0.190864 1.613136 -13.494929 0.017079 0.485647 -4.027701 0.017080 0.485657 -4.027707 -0.000001 0.000002 0.000001 0.245306 1.825066 -15.309751 0.131073 1.339707 -11.174024 0.116416 1.263348 -10.529452 0.000000 0.000001 -0.000002 0.306439 2.035118 -17.124604 0.372007 2.236738 -18.883887 0.362885 2.209866 -18.648255 -0.000000 0.000003 -0.000001 1.711630 6.110214 -18.827736 0.646590 -1.157129 -25.309140 0.639493 2.902673 -24.844516 0.000005 0.000001 0.000000 0.023210 -2.527703 -1.212117 0.000000 0.000000 0.000000 32.192498 1.618461 74.381935 0.000006 28.530503 -0.000004 46.641320 8.027978 12.322585 -4.077549 -16.174549 -15.131707 5.287472 -15.850487 -0.724070 -1.273743 0.137308 -2.094879 -0.000002 0.000001 -0.000001 0.000266 0.060780 -0.498777 0.077082 -1.034633 8.522341 0.101936 -1.188739 9.803327 -0.000000 -0.000000 -0.000001 0.043823 -0.781041 6.422755 0.139831 -1.390228 11.486725 0.180903 -1.578832 13.071667 0.000003 -0.000001 0.000001 0.218134 -1.731274 14.360466 0.248776 -1.846898 15.342828 0.301442 -2.028925 16.899517 -0.000003 0.000001 0.000001 0.484345 -2.554213 21.471871 0.335229 -2.136886 17.828915 0.417277 -2.376828 19.912959 -0.000001 0.000002 -0.000000 -20.508768 7.638562 -13.513709 48.788417 -7.841452 2.609416 -22.787273 -12.604159 1.490211 -5.003053 -0.000010 0.000038 0.000001 0.000001 0.000000 -25.317076 10.910377 -6.734145 65.135477 -11.417244 -10.275965 -29.106195 -10.996600 -1.460967 -9.070057 -0.000030 0.000078 0.000000 -0.000001 0.000002 
